<svg xmlns="http://www.w3.org/2000/svg" viewBox="0 0 512 512">
  <defs>
    <linearGradient id="g" x1="0" x2="1" y1="0" y2="1">
      <stop offset="0" stop-color="#22c55e"/>
      <stop offset="1" stop-color="#38bdf8"/>
    </linearGradient>
  </defs>
  <rect width="512" height="512" rx="108" fill="#0f172a"/>
  <path d="M110 292h36l29-78h132l31 78h64v72h-29a53 53 0 0 1-105 0h-76a53 53 0 0 1-105 0H62v-44a28 28 0 0 1 28-28h20Z" fill="url(#g)"/>
  <path d="M177 214h70v78h-99l29-78Zm85 0h43l31 78h-74v-78Z" fill="#e0f2fe" opacity=".88"/>
  <circle cx="140" cy="364" r="31" fill="#020617"/>
  <circle cx="320" cy="364" r="31" fill="#020617"/>
  <path d="M256 75c-51 0-92 39-92 88 0 67 92 158 92 158s92-91 92-158c0-49-41-88-92-88Zm0 126a38 38 0 1 1 0-76 38 38 0 0 1 0 76Z" fill="#f8fafc"/>
  <text x="256" y="454" text-anchor="middle" font-size="52" font-family="Arial, sans-serif" font-weight="900" fill="#f8fafc">APS</text>
</svg>
